<?xml version="1.0" encoding="UTF-8" standalone="no"?><!DOCTYPE svg PUBLIC "-//W3C//DTD SVG 1.1//EN" "http://www.w3.org/Graphics/SVG/1.1/DTD/svg11.dtd"><svg width="100%" height="100%" viewBox="0 0 2000 2000" version="1.1" xmlns="http://www.w3.org/2000/svg" xmlns:xlink="http://www.w3.org/1999/xlink" xml:space="preserve" xmlns:serif="http://www.serif.com/" style="fill-rule:evenodd;clip-rule:evenodd;stroke-linejoin:round;stroke-miterlimit:100;"><g id="low-detail" serif:id="low detail"><path id="outline-2" serif:id="outline 2" d="M342.696,269.661l0,272.054l-93.892,408.09l269.511,436.52l481.685,345.657l480.334,-344.688l270.861,-437.489l-93.891,-408.09l0,-272.054l-234.754,102.018l-422.55,204.053l-422.55,-204.053l-234.754,-102.018Z" style="fill:none;stroke:url(#_Linear1);stroke-width:350px;"/><path id="outline-1" serif:id="outline 1" d="M342.696,269.661l0,272.054l-93.892,408.09l269.511,436.52l481.685,345.657l480.334,-344.688l270.861,-437.489l-93.891,-408.09l0,-272.054l-234.754,102.018l-422.55,204.053l-422.55,-204.053l-234.754,-102.018Z" style="fill:none;stroke:#e9d4e5;stroke-width:185px;"/><g id="triangles"><path id="path1289" d="M1000,575.727l-469.5,102.023l-2.18,698.571l471.68,355.662l470.763,-356.466l-1.263,-697.767l-469.5,-102.023" style="fill:#e1bae4;"/><path id="path12891" serif:id="path1289" d="M1000,575.727l-469.5,102.023l469.5,286.03l469.5,-286.03l-469.5,-102.023" style="fill:#d3afe2;"/><path id="path985" d="M1470.76,1375.52l-470.763,356.466c0,0 -471.68,-355.662 -471.68,-355.662l471.68,-412.541l470.763,411.737Z" style="fill:#ddaed5;"/><path d="M530.5,677.75l0,0l-2.18,698.571l-279.52,-426.511l281.7,-272.06l0,0l0,0Zm939,0l0,0l281.7,272.06l-280.437,425.707l-1.263,-697.767l0,0l0,0Z" style="fill:#d2a6cc;"/><path d="M530.5,677.75l46.95,-306.068l422.55,204.045l-469.5,102.023l0,0Zm939,0l0,0l-469.5,-102.023l422.55,-204.045l46.95,306.068Z" style="fill:#bb9ccf;"/><path id="path905" d="M1000,963.78c0,0 145.518,541.324 145.518,541.324l-145.518,176.88l-145.518,-176.88l145.518,-541.324Z" style="fill:#d8a0ce;"/><path id="path828" d="M1145.52,1505.1l-145.518,176.88l-145.518,-176.88l145.518,-39.418l145.518,39.418Z" style="fill:#d6859c;fill-rule:nonzero;"/><path id="path836" d="M774.813,1056.2l76.731,-83.277l-10,-113.277l-117.149,-39.649l-213.239,27.463l66.294,47.637l96.778,125.315l100.585,35.788Zm450.374,0l-76.731,-83.277l10,-113.277l117.149,-39.649l213.239,27.463l-66.294,47.637l-96.778,125.315l-100.585,35.788Z" style="fill:#a282b8;"/><path id="path1013" d="M248.8,949.81l93.9,-408.09l187.8,136.03l-281.7,272.06Zm1502.4,0l-93.9,-408.09l-187.8,136.03l281.7,272.06Z" style="fill:#a98cc6;"/><path id="path1017" d="M342.7,541.72l234.75,-170.038l-46.95,306.068l-187.8,-136.03Zm1314.6,0l-234.75,-170.038l46.95,306.068l187.8,-136.03Z" style="fill:#967abf;"/><path id="path1015" d="M342.7,541.72l0,-272.061l234.75,102.023l-234.75,170.038Zm1314.6,0l0,-272.061l-234.75,102.023l234.75,170.038Z" style="fill:#7962b7;"/><path d="M386.7,341.508l132.537,57.601c0,0 -6.319,41.197 -12.747,83.101l-85.897,36.67c-18.808,-13.191 -33.893,-23.77 -33.893,-23.77l0,-153.602Zm1226.6,153.602c0,0 -15.085,10.579 -33.893,23.77l-85.897,-36.67c-6.428,-41.904 -12.747,-83.101 -12.747,-83.101l0,0l0,0l132.537,-57.601l0,153.602Z" style="fill:#e9d4e5;"/></g><g id="whiskers"><path d="M331.463,1685.61l54.007,-111.475l388.505,-194.252" style="fill:none;stroke:#c79ccd;stroke-width:46px;stroke-linecap:round;stroke-miterlimit:1.5;"/><path d="M183.975,1529.89l520,-220" style="fill:none;stroke:#c79ccd;stroke-width:46px;stroke-linecap:round;stroke-miterlimit:1.5;"/><path d="M1726.03,1629.89l-500,-250.001" style="fill:none;stroke:#c79ccd;stroke-width:46px;stroke-linecap:round;stroke-miterlimit:1.5;"/><path d="M1821.88,1494l-90.684,0l-435.175,-184.113" style="fill:none;stroke:#c79ccd;stroke-width:46px;stroke-linecap:round;stroke-miterlimit:1.5;"/></g></g><defs><linearGradient id="_Linear1" x1="0" y1="0" x2="1" y2="0" gradientUnits="userSpaceOnUse" gradientTransform="matrix(1.15326e-13,1883.42,-1883.42,1.15326e-13,1000,58.2888)"><stop offset="0" style="stop-color:#e8aad1;stop-opacity:1"/><stop offset="1" style="stop-color:#7468a8;stop-opacity:1"/></linearGradient></defs></svg>